<svg width="820" height="180" xmlns="http://www.w3.org/2000/svg">
<defs>
  <linearGradient id="bg" x1="0" y1="0" x2="1" y2="0">
    <stop offset="0%" stop-color="#020817"/>
    <stop offset="100%" stop-color="#0C1A2E"/>
  </linearGradient>
  <linearGradient id="shine" x1="0" y1="0" x2="0" y2="1">
    <stop offset="0%" stop-color="#0EA5E9" stop-opacity="0.15"/>
    <stop offset="100%" stop-color="#0EA5E9" stop-opacity="0"/>
  </linearGradient>
</defs>

<!-- Background -->
<rect width="820" height="180" fill="url(#bg)" rx="6"/>
<rect width="820" height="180" fill="url(#shine)" rx="6"/>

<!-- Subtle grid lines -->
<rect width="820" height="180" fill="none" stroke="#0EA5E9" stroke-width="0.5" rx="6" opacity="0.3"/>

<!-- Pixel art -->
<rect x="56" y="0" width="9" height="9" fill="#023E8A"/>
<rect x="65" y="0" width="9" height="9" fill="#023E8A"/>
<rect x="74" y="0" width="9" height="9" fill="#023E8A"/>
<rect x="83" y="0" width="9" height="9" fill="#023E8A"/>
<rect x="92" y="0" width="9" height="9" fill="#023E8A"/>
<rect x="101" y="0" width="9" height="9" fill="#023E8A"/>
<rect x="110" y="0" width="9" height="9" fill="#023E8A"/>
<rect x="119" y="0" width="9" height="9" fill="#023E8A"/>
<rect x="128" y="0" width="9" height="9" fill="#023E8A"/>
<rect x="137" y="0" width="9" height="9" fill="#023E8A"/>
<rect x="146" y="0" width="9" height="9" fill="#023E8A"/>
<rect x="47" y="9" width="9" height="9" fill="#023E8A"/>
<rect x="56" y="9" width="9" height="9" fill="#0077B6"/>
<rect x="65" y="9" width="9" height="9" fill="#0077B6"/>
<rect x="74" y="9" width="9" height="9" fill="#0077B6"/>
<rect x="83" y="9" width="9" height="9" fill="#0077B6"/>
<rect x="92" y="9" width="9" height="9" fill="#0077B6"/>
<rect x="101" y="9" width="9" height="9" fill="#0077B6"/>
<rect x="110" y="9" width="9" height="9" fill="#0077B6"/>
<rect x="119" y="9" width="9" height="9" fill="#0077B6"/>
<rect x="128" y="9" width="9" height="9" fill="#ADE8F4"/>
<rect x="137" y="9" width="9" height="9" fill="#ADE8F4"/>
<rect x="146" y="9" width="9" height="9" fill="#ADE8F4"/>
<rect x="155" y="9" width="9" height="9" fill="#ADE8F4"/>
<rect x="164" y="9" width="9" height="9" fill="#ADE8F4"/>
<rect x="38" y="18" width="9" height="9" fill="#023E8A"/>
<rect x="47" y="18" width="9" height="9" fill="#0077B6"/>
<rect x="56" y="18" width="9" height="9" fill="#0096C7"/>
<rect x="65" y="18" width="9" height="9" fill="#0096C7"/>
<rect x="74" y="18" width="9" height="9" fill="#0096C7"/>
<rect x="83" y="18" width="9" height="9" fill="#0096C7"/>
<rect x="92" y="18" width="9" height="9" fill="#0096C7"/>
<rect x="101" y="18" width="9" height="9" fill="#0096C7"/>
<rect x="110" y="18" width="9" height="9" fill="#0096C7"/>
<rect x="119" y="18" width="9" height="9" fill="#ADE8F4"/>
<rect x="128" y="18" width="9" height="9" fill="#0096C7"/>
<rect x="137" y="18" width="9" height="9" fill="#0096C7"/>
<rect x="146" y="18" width="9" height="9" fill="#0077B6"/>
<rect x="155" y="18" width="9" height="9" fill="#0077B6"/>
<rect x="164" y="18" width="9" height="9" fill="#023E8A"/>
<rect x="38" y="27" width="9" height="9" fill="#023E8A"/>
<rect x="47" y="27" width="9" height="9" fill="#0077B6"/>
<rect x="56" y="27" width="9" height="9" fill="#0096C7"/>
<rect x="65" y="27" width="9" height="9" fill="#90E0EF"/>
<rect x="74" y="27" width="9" height="9" fill="#90E0EF"/>
<rect x="83" y="27" width="9" height="9" fill="#90E0EF"/>
<rect x="92" y="27" width="9" height="9" fill="#90E0EF"/>
<rect x="101" y="27" width="9" height="9" fill="#90E0EF"/>
<rect x="110" y="27" width="9" height="9" fill="#ADE8F4"/>
<rect x="119" y="27" width="9" height="9" fill="#90E0EF"/>
<rect x="128" y="27" width="9" height="9" fill="#90E0EF"/>
<rect x="137" y="27" width="9" height="9" fill="#0A1628"/>
<rect x="146" y="27" width="9" height="9" fill="#0A1628"/>
<rect x="155" y="27" width="9" height="9" fill="#0A1628"/>
<rect x="164" y="27" width="9" height="9" fill="#0A1628"/>
<rect x="173" y="27" width="9" height="9" fill="#023E8A"/>
<rect x="38" y="36" width="9" height="9" fill="#023E8A"/>
<rect x="47" y="36" width="9" height="9" fill="#0077B6"/>
<rect x="56" y="36" width="9" height="9" fill="#0096C7"/>
<rect x="65" y="36" width="9" height="9" fill="#90E0EF"/>
<rect x="74" y="36" width="9" height="9" fill="#90E0EF"/>
<rect x="83" y="36" width="9" height="9" fill="#90E0EF"/>
<rect x="92" y="36" width="9" height="9" fill="#90E0EF"/>
<rect x="101" y="36" width="9" height="9" fill="#90E0EF"/>
<rect x="110" y="36" width="9" height="9" fill="#ADE8F4"/>
<rect x="119" y="36" width="9" height="9" fill="#90E0EF"/>
<rect x="128" y="36" width="9" height="9" fill="#90E0EF"/>
<rect x="137" y="36" width="9" height="9" fill="#0A1628"/>
<rect x="146" y="36" width="9" height="9" fill="#0A1628"/>
<rect x="155" y="36" width="9" height="9" fill="#0A1628"/>
<rect x="164" y="36" width="9" height="9" fill="#0A1628"/>
<rect x="173" y="36" width="9" height="9" fill="#023E8A"/>
<rect x="38" y="45" width="9" height="9" fill="#023E8A"/>
<rect x="47" y="45" width="9" height="9" fill="#0077B6"/>
<rect x="56" y="45" width="9" height="9" fill="#0096C7"/>
<rect x="65" y="45" width="9" height="9" fill="#0096C7"/>
<rect x="74" y="45" width="9" height="9" fill="#0096C7"/>
<rect x="83" y="45" width="9" height="9" fill="#0096C7"/>
<rect x="92" y="45" width="9" height="9" fill="#0096C7"/>
<rect x="101" y="45" width="9" height="9" fill="#0096C7"/>
<rect x="110" y="45" width="9" height="9" fill="#ADE8F4"/>
<rect x="119" y="45" width="9" height="9" fill="#0096C7"/>
<rect x="128" y="45" width="9" height="9" fill="#0096C7"/>
<rect x="137" y="45" width="9" height="9" fill="#0A1628"/>
<rect x="146" y="45" width="9" height="9" fill="#0A1628"/>
<rect x="155" y="45" width="9" height="9" fill="#0A1628"/>
<rect x="164" y="45" width="9" height="9" fill="#0A1628"/>
<rect x="38" y="54" width="9" height="9" fill="#023E8A"/>
<rect x="47" y="54" width="9" height="9" fill="#0077B6"/>
<rect x="56" y="54" width="9" height="9" fill="#0096C7"/>
<rect x="65" y="54" width="9" height="9" fill="#0096C7"/>
<rect x="74" y="54" width="9" height="9" fill="#0096C7"/>
<rect x="83" y="54" width="9" height="9" fill="#0096C7"/>
<rect x="92" y="54" width="9" height="9" fill="#0096C7"/>
<rect x="101" y="54" width="9" height="9" fill="#0096C7"/>
<rect x="110" y="54" width="9" height="9" fill="#ADE8F4"/>
<rect x="119" y="54" width="9" height="9" fill="#0096C7"/>
<rect x="128" y="54" width="9" height="9" fill="#0096C7"/>
<rect x="137" y="54" width="9" height="9" fill="#0A1628"/>
<rect x="146" y="54" width="9" height="9" fill="#0A1628"/>
<rect x="155" y="54" width="9" height="9" fill="#0A1628"/>
<rect x="164" y="54" width="9" height="9" fill="#0A1628"/>
<rect x="38" y="63" width="9" height="9" fill="#023E8A"/>
<rect x="47" y="63" width="9" height="9" fill="#0077B6"/>
<rect x="56" y="63" width="9" height="9" fill="#0096C7"/>
<rect x="65" y="63" width="9" height="9" fill="#0096C7"/>
<rect x="74" y="63" width="9" height="9" fill="#0096C7"/>
<rect x="83" y="63" width="9" height="9" fill="#0096C7"/>
<rect x="92" y="63" width="9" height="9" fill="#0096C7"/>
<rect x="101" y="63" width="9" height="9" fill="#0096C7"/>
<rect x="110" y="63" width="9" height="9" fill="#0096C7"/>
<rect x="119" y="63" width="9" height="9" fill="#ADE8F4"/>
<rect x="128" y="63" width="9" height="9" fill="#0096C7"/>
<rect x="137" y="63" width="9" height="9" fill="#0096C7"/>
<rect x="146" y="63" width="9" height="9" fill="#0077B6"/>
<rect x="155" y="63" width="9" height="9" fill="#0077B6"/>
<rect x="164" y="63" width="9" height="9" fill="#023E8A"/>
<rect x="38" y="72" width="9" height="9" fill="#023E8A"/>
<rect x="47" y="72" width="9" height="9" fill="#0077B6"/>
<rect x="56" y="72" width="9" height="9" fill="#0096C7"/>
<rect x="65" y="72" width="9" height="9" fill="#0096C7"/>
<rect x="74" y="72" width="9" height="9" fill="#0096C7"/>
<rect x="83" y="72" width="9" height="9" fill="#0096C7"/>
<rect x="92" y="72" width="9" height="9" fill="#0096C7"/>
<rect x="101" y="72" width="9" height="9" fill="#0096C7"/>
<rect x="110" y="72" width="9" height="9" fill="#0096C7"/>
<rect x="119" y="72" width="9" height="9" fill="#0096C7"/>
<rect x="128" y="72" width="9" height="9" fill="#ADE8F4"/>
<rect x="137" y="72" width="9" height="9" fill="#ADE8F4"/>
<rect x="146" y="72" width="9" height="9" fill="#ADE8F4"/>
<rect x="155" y="72" width="9" height="9" fill="#ADE8F4"/>
<rect x="164" y="72" width="9" height="9" fill="#ADE8F4"/>
<rect x="47" y="81" width="9" height="9" fill="#023E8A"/>
<rect x="56" y="81" width="9" height="9" fill="#0077B6"/>
<rect x="65" y="81" width="9" height="9" fill="#0077B6"/>
<rect x="74" y="81" width="9" height="9" fill="#0077B6"/>
<rect x="83" y="81" width="9" height="9" fill="#0077B6"/>
<rect x="92" y="81" width="9" height="9" fill="#0077B6"/>
<rect x="101" y="81" width="9" height="9" fill="#0077B6"/>
<rect x="110" y="81" width="9" height="9" fill="#0077B6"/>
<rect x="119" y="81" width="9" height="9" fill="#0077B6"/>
<rect x="128" y="81" width="9" height="9" fill="#0077B6"/>
<rect x="137" y="81" width="9" height="9" fill="#0077B6"/>
<rect x="146" y="81" width="9" height="9" fill="#023E8A"/>
<rect x="155" y="81" width="9" height="9" fill="#023E8A"/>
<rect x="47" y="90" width="9" height="9" fill="#023E8A"/>
<rect x="56" y="90" width="9" height="9" fill="#0077B6"/>
<rect x="65" y="90" width="9" height="9" fill="#0077B6"/>
<rect x="74" y="90" width="9" height="9" fill="#0077B6"/>
<rect x="83" y="90" width="9" height="9" fill="#0077B6"/>
<rect x="92" y="90" width="9" height="9" fill="#0077B6"/>
<rect x="101" y="90" width="9" height="9" fill="#0077B6"/>
<rect x="110" y="90" width="9" height="9" fill="#0077B6"/>
<rect x="119" y="90" width="9" height="9" fill="#0077B6"/>
<rect x="128" y="90" width="9" height="9" fill="#0077B6"/>
<rect x="137" y="90" width="9" height="9" fill="#0077B6"/>
<rect x="146" y="90" width="9" height="9" fill="#023E8A"/>
<rect x="155" y="90" width="9" height="9" fill="#023E8A"/>
<rect x="56" y="99" width="9" height="9" fill="#023E8A"/>
<rect x="65" y="99" width="9" height="9" fill="#023E8A"/>
<rect x="74" y="99" width="9" height="9" fill="#0077B6"/>
<rect x="83" y="99" width="9" height="9" fill="#0077B6"/>
<rect x="92" y="99" width="9" height="9" fill="#0077B6"/>
<rect x="101" y="99" width="9" height="9" fill="#0077B6"/>
<rect x="110" y="99" width="9" height="9" fill="#0077B6"/>
<rect x="119" y="99" width="9" height="9" fill="#0077B6"/>
<rect x="128" y="99" width="9" height="9" fill="#023E8A"/>
<rect x="137" y="99" width="9" height="9" fill="#023E8A"/>
<rect x="146" y="99" width="9" height="9" fill="#023E8A"/>
<rect x="155" y="99" width="9" height="9" fill="#023E8A"/>
<rect x="56" y="108" width="9" height="9" fill="#023E8A"/>
<rect x="65" y="108" width="9" height="9" fill="#023E8A"/>
<rect x="74" y="108" width="9" height="9" fill="#0077B6"/>
<rect x="83" y="108" width="9" height="9" fill="#0077B6"/>
<rect x="92" y="108" width="9" height="9" fill="#0077B6"/>
<rect x="101" y="108" width="9" height="9" fill="#0077B6"/>
<rect x="110" y="108" width="9" height="9" fill="#0077B6"/>
<rect x="119" y="108" width="9" height="9" fill="#0077B6"/>
<rect x="128" y="108" width="9" height="9" fill="#023E8A"/>
<rect x="137" y="108" width="9" height="9" fill="#023E8A"/>
<rect x="146" y="108" width="9" height="9" fill="#023E8A"/>
<rect x="155" y="108" width="9" height="9" fill="#023E8A"/>
<rect x="65" y="117" width="9" height="9" fill="#023E8A"/>
<rect x="74" y="117" width="9" height="9" fill="#023E8A"/>
<rect x="83" y="117" width="9" height="9" fill="#0077B6"/>
<rect x="92" y="117" width="9" height="9" fill="#0077B6"/>
<rect x="101" y="117" width="9" height="9" fill="#0077B6"/>
<rect x="110" y="117" width="9" height="9" fill="#0077B6"/>
<rect x="119" y="117" width="9" height="9" fill="#023E8A"/>
<rect x="128" y="117" width="9" height="9" fill="#023E8A"/>
<rect x="137" y="117" width="9" height="9" fill="#023E8A"/>
<rect x="146" y="117" width="9" height="9" fill="#023E8A"/>
<rect x="74" y="126" width="9" height="9" fill="#023E8A"/>
<rect x="83" y="126" width="9" height="9" fill="#023E8A"/>
<rect x="92" y="126" width="9" height="9" fill="#0077B6"/>
<rect x="101" y="126" width="9" height="9" fill="#0077B6"/>
<rect x="110" y="126" width="9" height="9" fill="#023E8A"/>
<rect x="119" y="126" width="9" height="9" fill="#023E8A"/>
<rect x="128" y="126" width="9" height="9" fill="#023E8A"/>
<rect x="137" y="126" width="9" height="9" fill="#023E8A"/>
<rect x="83" y="135" width="9" height="9" fill="#023E8A"/>
<rect x="92" y="135" width="9" height="9" fill="#023E8A"/>
<rect x="101" y="135" width="9" height="9" fill="#023E8A"/>
<rect x="110" y="135" width="9" height="9" fill="#023E8A"/>
<rect x="119" y="135" width="9" height="9" fill="#023E8A"/>
<rect x="128" y="135" width="9" height="9" fill="#023E8A"/>
<rect x="92" y="144" width="9" height="9" fill="#023E8A"/>
<rect x="101" y="144" width="9" height="9" fill="#023E8A"/>
<rect x="110" y="144" width="9" height="9" fill="#023E8A"/>
<rect x="119" y="144" width="9" height="9" fill="#023E8A"/>
<rect x="101" y="153" width="9" height="9" fill="#023E8A"/>
<rect x="110" y="153" width="9" height="9" fill="#023E8A"/>
<rect x="173" y="9" width="9" height="9" fill="#ADE8F4"/>
<rect x="182" y="18" width="9" height="9" fill="#ADE8F4"/>
<rect x="191" y="27" width="9" height="9" fill="#ADE8F4"/>
<rect x="191" y="36" width="9" height="9" fill="#ADE8F4"/>
<rect x="191" y="45" width="9" height="9" fill="#ADE8F4"/>
<rect x="191" y="54" width="9" height="9" fill="#ADE8F4"/>
<rect x="182" y="63" width="9" height="9" fill="#ADE8F4"/>
<rect x="173" y="72" width="9" height="9" fill="#ADE8F4"/>
<rect x="173" y="81" width="9" height="9" fill="#334155"/>
<rect x="182" y="81" width="9" height="9" fill="#334155"/>
<rect x="182" y="90" width="9" height="9" fill="#334155"/>
<rect x="191" y="90" width="9" height="9" fill="#334155"/>
<rect x="191" y="99" width="9" height="9" fill="#334155"/>
<rect x="200" y="99" width="9" height="9" fill="#334155"/>
<rect x="200" y="108" width="9" height="9" fill="#334155"/>
<rect x="209" y="108" width="9" height="9" fill="#334155"/>

<!-- Title text -->
<text x="240" y="68" font-family="'Courier New', monospace" font-size="40" font-weight="700" fill="#E0F2FE" letter-spacing="2">RoleLens</text>
<text x="241" y="69" font-family="'Courier New', monospace" font-size="40" font-weight="700" fill="none" stroke="#0EA5E9" stroke-width="0.5" letter-spacing="2" opacity="0.6">RoleLens</text>

<!-- Subtitle -->
<text x="242" y="98" font-family="'Courier New', monospace" font-size="13" fill="#7DD3FC" letter-spacing="1">Entra Role Minimizer</text>

<!-- Divider -->
<line x1="242" y1="110" x2="580" y2="110" stroke="#0284C7" stroke-width="1" opacity="0.5"/>

<!-- Description line -->
<text x="242" y="128" font-family="'Courier New', monospace" font-size="11" fill="#38BDF8" opacity="0.8">Minimum privilege. Zero guesswork. 100% Microsoft official data.</text>

<!-- Tags -->
<rect x="242" y="143" width="100" height="18" rx="3" fill="#0369A1" opacity="0.5"/>
<text x="252" y="156" font-family="'Courier New', monospace" font-size="10" fill="#90E0EF">Task → Role</text>

<rect x="350" y="143" width="90" height="18" rx="3" fill="#0369A1" opacity="0.5"/>
<text x="360" y="156" font-family="'Courier New', monospace" font-size="10" fill="#90E0EF">Role Diff</text>

<rect x="448" y="143" width="110" height="18" rx="3" fill="#0369A1" opacity="0.5"/>
<text x="458" y="156" font-family="'Courier New', monospace" font-size="10" fill="#90E0EF">Daily Refresh</text>

</svg>