<svg width="100%" viewBox="0 0 1100 780" xmlns="http://www.w3.org/2000/svg">
<defs>
  <style>
    @keyframes flow1{to{stroke-dashoffset:-28}}
    @keyframes flow2{to{stroke-dashoffset:-22}}
    @keyframes flow3{to{stroke-dashoffset:-18}}
    @keyframes pulse{0%,100%{opacity:1}50%{opacity:.3}}
    .fl1{stroke-dasharray:7 7;animation:flow1 1.2s linear infinite}
    .fl2{stroke-dasharray:6 6;animation:flow2 1.8s linear infinite}
    .fl3{stroke-dasharray:5 5;animation:flow3 2.4s linear infinite}
    .dot{animation:pulse 2s ease-in-out infinite}
    .mono{font-family:ui-monospace,SFMono-Regular,Menlo,monospace}
    .sans{font-family:-apple-system,BlinkMacSystemFont,sans-serif}
    .bold{font-weight:700}
  </style>
  <marker id="a" viewBox="0 0 10 10" refX="8" refY="5" markerWidth="5" markerHeight="5" orient="auto-start-reverse">
    <path d="M2 1L8 5L2 9" fill="none" stroke="context-stroke" stroke-width="1.5" stroke-linecap="round" stroke-linejoin="round"/>
  </marker>
  <marker id="ag" viewBox="0 0 10 10" refX="8" refY="5" markerWidth="5" markerHeight="5" orient="auto-start-reverse">
    <path d="M2 1L8 5L2 9" fill="none" stroke="#1D9E75" stroke-width="1.5" stroke-linecap="round" stroke-linejoin="round"/>
  </marker>
  <marker id="ab" viewBox="0 0 10 10" refX="8" refY="5" markerWidth="5" markerHeight="5" orient="auto-start-reverse">
    <path d="M2 1L8 5L2 9" fill="none" stroke="#378ADD" stroke-width="1.5" stroke-linecap="round" stroke-linejoin="round"/>
  </marker>
  <marker id="ap" viewBox="0 0 10 10" refX="8" refY="5" markerWidth="5" markerHeight="5" orient="auto-start-reverse">
    <path d="M2 1L8 5L2 9" fill="none" stroke="#7F77DD" stroke-width="1.5" stroke-linecap="round" stroke-linejoin="round"/>
  </marker>
  <pattern id="dots" width="24" height="24" patternUnits="userSpaceOnUse">
    <circle cx="12" cy="12" r="0.9" fill="#444441" opacity="0.4"/>
  </pattern>
</defs>

<rect width="1100" height="780" fill="#0D1018"/>
<rect width="1100" height="780" fill="url(#dots)"/>

<!-- ZONE LABELS -->
<text x="200" y="22" text-anchor="middle" class="mono bold" fill="#378ADD" style="font-size:13px;letter-spacing:.12em">MICROSOFT PUBLIC</text>
<text x="530" y="22" text-anchor="middle" class="mono bold" fill="#888780" style="font-size:13px;letter-spacing:.12em">GITHUB FREE TIER</text>
<text x="880" y="22" text-anchor="middle" class="mono bold" fill="#1D9E75" style="font-size:13px;letter-spacing:.12em">CLOUDFLARE FREE TIER</text>

<!-- ZONE BORDERS -->
<rect x="30"  y="30" width="340" height="460" rx="10" fill="none" stroke="#1C3A5A" stroke-width="0.8" stroke-dasharray="5 4"/>
<rect x="390" y="30" width="260" height="460" rx="10" fill="none" stroke="#2A2A3A" stroke-width="0.8" stroke-dasharray="5 4"/>
<rect x="670" y="30" width="402" height="460" rx="10" fill="none" stroke="#0F4030" stroke-width="0.8" stroke-dasharray="5 4"/>

<!-- MICROSOFT DOCS -->
<rect x="48" y="52" width="304" height="72" rx="8" fill="#042C53" stroke="#185FA5" stroke-width="0.5"/>
<text x="200" y="80" text-anchor="middle" class="mono bold" fill="#85B7EB" style="font-size:16px">MicrosoftDocs / entra-docs</text>
<text x="200" y="104" text-anchor="middle" class="sans" fill="#85B7EB" style="font-size:12px;opacity:.8">GitHub repo · role definitions · permissions</text>
<text x="52" y="142" class="mono" fill="#378ADD" style="font-size:11px">▸ 130 built-in role definitions</text>
<text x="52" y="158" class="mono" fill="#378ADD" style="font-size:11px">▸ Full permission arrays per role</text>

<!-- MICROSOFT LEARN -->
<rect x="48" y="178" width="304" height="72" rx="8" fill="#042C53" stroke="#185FA5" stroke-width="0.5"/>
<text x="200" y="206" text-anchor="middle" class="mono bold" fill="#85B7EB" style="font-size:16px">Microsoft Learn</text>
<text x="200" y="230" text-anchor="middle" class="sans" fill="#85B7EB" style="font-size:12px;opacity:.8">least-privileged-by-task · HTML scrape</text>
<text x="52" y="268" class="mono" fill="#378ADD" style="font-size:11px">▸ 211 task → minimum role mappings</text>
<text x="52" y="284" class="mono" fill="#378ADD" style="font-size:11px">▸ 36 feature areas covered</text>

<!-- GRAPH API WARNING -->
<rect x="48" y="308" width="304" height="60" rx="8" fill="#1A0808" stroke="#A32D2D" stroke-width="0.8" stroke-dasharray="4 3"/>
<text x="62" y="332" class="mono" fill="#E24B4A" style="font-size:11px">⚠  Graph API /roleDefinitions → 401</text>
<text x="62" y="354" class="mono" fill="#888780" style="font-size:11px">Requires bearer token · not used</text>

<!-- GITHUB ACTIONS -->
<rect x="408" y="52" width="224" height="68" rx="8" fill="#1C1C28" stroke="#444441" stroke-width="0.5"/>
<text x="520" y="78" text-anchor="middle" class="mono bold" fill="#D3D1C7" style="font-size:16px">GitHub Actions</text>
<text x="520" y="102" text-anchor="middle" class="sans" fill="#D3D1C7" style="font-size:12px;opacity:.75">cron · 01:00 UTC · free tier</text>

<!-- PIPELINE STEPS -->
<rect x="408" y="138" width="224" height="32" rx="5" fill="#131723" stroke="#2C2C2A" stroke-width="0.5"/>
<text x="520" y="154" text-anchor="middle" class="mono" fill="#B4B2A9" style="font-size:13px">① fetch_roles.py</text>

<rect x="408" y="178" width="224" height="32" rx="5" fill="#131723" stroke="#2C2C2A" stroke-width="0.5"/>
<text x="520" y="194" text-anchor="middle" class="mono" fill="#B4B2A9" style="font-size:13px">② scrape_tasks.py</text>

<rect x="408" y="218" width="224" height="32" rx="5" fill="#131723" stroke="#2C2C2A" stroke-width="0.5"/>
<text x="520" y="234" text-anchor="middle" class="mono" fill="#B4B2A9" style="font-size:13px">③ diff_roles.py</text>

<rect x="408" y="258" width="224" height="32" rx="5" fill="#131723" stroke="#2C2C2A" stroke-width="0.5"/>
<text x="520" y="274" text-anchor="middle" class="mono" fill="#B4B2A9" style="font-size:13px">④ enrich.py</text>

<rect x="408" y="298" width="224" height="32" rx="5" fill="#131723" stroke="#2C2C2A" stroke-width="0.5"/>
<text x="520" y="314" text-anchor="middle" class="mono" fill="#B4B2A9" style="font-size:13px">⑤ validate.py</text>

<rect x="408" y="338" width="224" height="32" rx="5" fill="#04342C" stroke="#1D9E75" stroke-width="0.8"/>
<text x="520" y="354" text-anchor="middle" class="mono" fill="#1D9E75" style="font-size:13px">⑥ push_to_cloudflare.py</text>

<line x1="520" y1="170" x2="520" y2="176" stroke="#444441" stroke-width="0.8" marker-end="url(#a)"/>
<line x1="520" y1="210" x2="520" y2="216" stroke="#444441" stroke-width="0.8" marker-end="url(#a)"/>
<line x1="520" y1="250" x2="520" y2="256" stroke="#444441" stroke-width="0.8" marker-end="url(#a)"/>
<line x1="520" y1="290" x2="520" y2="296" stroke="#444441" stroke-width="0.8" marker-end="url(#a)"/>
<line x1="520" y1="330" x2="520" y2="336" stroke="#1D9E75" stroke-width="0.8" marker-end="url(#ag)"/>

<!-- CLOUDFLARE WORKER -->
<rect x="688" y="52" width="366" height="68" rx="8" fill="#04342C" stroke="#0F6E56" stroke-width="0.5"/>
<text x="871" y="78" text-anchor="middle" class="mono bold" fill="#5DCAA5" style="font-size:17px">Cloudflare Worker API</text>
<text x="871" y="104" text-anchor="middle" class="sans" fill="#5DCAA5" style="font-size:12px;opacity:.8">/search · /diff · /role · /roles · /status</text>
<circle class="dot" cx="676" cy="86" r="6" fill="#1D9E75"/>

<!-- D1 -->
<rect x="688" y="152" width="170" height="72" rx="8" fill="#04342C" stroke="#0F6E56" stroke-width="0.5"/>
<text x="773" y="180" text-anchor="middle" class="mono bold" fill="#5DCAA5" style="font-size:15px">D1 SQLite</text>
<text x="773" y="204" text-anchor="middle" class="sans" fill="#5DCAA5" style="font-size:12px;opacity:.8">roles · tasks · search</text>
<text x="690" y="238" class="mono" fill="#1D9E75" style="font-size:10px">130 roles · 211 tasks</text>

<!-- KV -->
<rect x="878" y="152" width="176" height="72" rx="8" fill="#04342C" stroke="#0F6E56" stroke-width="0.5"/>
<text x="966" y="180" text-anchor="middle" class="mono bold" fill="#5DCAA5" style="font-size:15px">KV Store</text>
<text x="966" y="204" text-anchor="middle" class="sans" fill="#5DCAA5" style="font-size:12px;opacity:.8">master.json · status</text>
<text x="880" y="238" class="mono" fill="#1D9E75" style="font-size:10px">sub-ms reads · global</text>

<!-- PAGES -->
<rect x="688" y="268" width="366" height="68" rx="8" fill="#04342C" stroke="#0F6E56" stroke-width="0.5"/>
<text x="871" y="294" text-anchor="middle" class="mono bold" fill="#5DCAA5" style="font-size:16px">Cloudflare Pages · Global CDN</text>
<text x="871" y="320" text-anchor="middle" class="sans" fill="#5DCAA5" style="font-size:12px;opacity:.8">entrarolelens.aboutcloud.io · 330+ PoPs</text>

<!-- UMAMI -->
<rect x="688" y="358" width="366" height="56" rx="8" fill="#131723" stroke="#2C2C2A" stroke-width="0.5"/>
<text x="871" y="382" text-anchor="middle" class="mono bold" fill="#B4B2A9" style="font-size:14px">Umami Analytics</text>
<text x="871" y="402" text-anchor="middle" class="sans" fill="#B4B2A9" style="font-size:12px;opacity:.75">analytics.aboutcloud.io · privacy-first</text>

<!-- CF INTERNAL ARROWS -->
<line x1="773" y1="120" x2="773" y2="150" stroke="#1D9E75" stroke-width="0.8" marker-end="url(#ag)"/>
<line x1="966" y1="120" x2="966" y2="150" stroke="#1D9E75" stroke-width="0.8" marker-end="url(#ag)"/>
<line x1="871" y1="120" x2="871" y2="266" stroke="#1D9E75" stroke-width="0.5" stroke-dasharray="4 3" marker-end="url(#ag)"/>

<!-- ANIMATED FLOW ARROWS -->
<path class="fl2" d="M352 88 L406 88" fill="none" stroke="#378ADD" stroke-width="1.5" marker-end="url(#ab)"/>
<path class="fl2" d="M352 214 L406 194" fill="none" stroke="#378ADD" stroke-width="1.5" marker-end="url(#ab)"/>
<text x="358" y="80" class="mono" fill="#378ADD" style="font-size:10px">fetch</text>
<text x="358" y="210" class="mono" fill="#378ADD" style="font-size:10px">scrape</text>
<path class="fl1" d="M632 354 L686 108" fill="none" stroke="#1D9E75" stroke-width="2" marker-end="url(#ag)"/>
<text x="640" y="248" class="mono" fill="#1D9E75" style="font-size:10px">push nightly</text>

<!-- USER FLOW -->
<rect x="48" y="566" width="260" height="76" rx="10" fill="#26215C" stroke="#534AB7" stroke-width="0.5"/>
<text x="178" y="594" text-anchor="middle" class="mono bold" fill="#CECBF6" style="font-size:17px">Entra Admin</text>
<text x="178" y="622" text-anchor="middle" class="sans" fill="#CECBF6" style="font-size:13px;opacity:.85">browser · any device · no login</text>

<rect x="328" y="562" width="340" height="84" rx="8" fill="#0D1018" stroke="#2A2A3A" stroke-width="0.8"/>
<text x="348" y="588" class="mono" fill="#7F77DD" style="font-size:12px">① Browser loads UI from Pages CDN</text>
<text x="348" y="610" class="mono" fill="#7F77DD" style="font-size:12px">② Types task → Worker receives query</text>
<text x="348" y="632" class="mono" fill="#7F77DD" style="font-size:12px">③ Worker queries D1 → &lt; 5ms response</text>

<path class="fl3" d="M308 590 L326 590 L326 546 L686 316" fill="none" stroke="#7F77DD" stroke-width="1" marker-end="url(#ap)"/>
<path class="fl1" d="M308 606 L346 606 L346 556 L686 112" fill="none" stroke="#7F77DD" stroke-width="1.2" marker-end="url(#ap)"/>
<path class="fl3" d="M686 120 L390 120 L390 616 L310 616" fill="none" stroke="#7F77DD" stroke-width="0.8" stroke-dasharray="4 4" marker-end="url(#ap)"/>

<!-- COST BADGE -->
<rect x="690" y="562" width="378" height="84" rx="10" fill="#04342C" stroke="#1D9E75" stroke-width="1"/>
<text x="879" y="596" text-anchor="middle" class="mono bold" fill="#1D9E75" style="font-size:14px;letter-spacing:.08em">TOTAL INFRASTRUCTURE COST</text>
<text x="879" y="634" text-anchor="middle" class="mono bold" fill="#1D9E75" style="font-size:36px">€ 0 / month</text>

<!-- LEGEND -->
<text x="48"  y="672" class="mono" fill="#378ADD" style="font-size:12px">━━  Microsoft data fetch</text>
<text x="290" y="672" class="mono" fill="#1D9E75" style="font-size:12px">━━  Cloudflare internal</text>
<text x="530" y="672" class="mono" fill="#7F77DD" style="font-size:12px">━ ━  User request / response</text>

</svg>
